<?xml version="1.0" encoding="UTF-8"?><svg id="Layer_1" xmlns="http://www.w3.org/2000/svg" viewBox="0 0 43.96 28.61"><polygon points="10.72 22.89 0 22.89 0 0 2 0 2 20.89 10.72 20.89 10.72 22.89" style="fill:#fff;"/><path d="M41.53,14.54c-3.32.08-5.81-.43-7.37-.41-1.59.02-6.91.2-8.56-.05-1.39-.21-2.2.41-4.26.63-2.22.24-4.8,1.35-5.06,1.46-.17.07-.41,0-.47-.16-.1-.28-.21-.71-.85-.73,0,0-.56-.02-2.6,0-2.08.02-2.13,1.98-2.15,7-.02,4.82.81,6.33,1.85,6.33h2.91c.78-.02.68-.94.81-1.26.08-.16.36-.31.61-.16,2.85,1.66,5.62.92,8.04.48,1.94-.36,2.59-.25,3.71.04,1.29.33,2.43-.49,2.17-1.82,1.99.34,2.95-2.11,2.54-2.79l.67-.03c1.5-.09,2.45-3.22.82-4.04-1.12-.51-1.15-.72-1.93-.91,1.42-.15,1.95,0,2.44-.04,1.06-.07,2.56-.23,3.93-.06.78.1.85-.18,3.1-.05,2.85.17,2.83-3.5-.33-3.43ZM14.25,27.98c-.31-.03-1.87-.02-1.87-.02-.69,0-1.52-.71-1.52-6.04.04-5.52.26-6.22,1.89-6.22l2.02.06c.12.02.21.09.28.22.16.31-.54.73-.69,5.78-.05,2,.33,5.46.45,5.78.11.3-.11.48-.56.44ZM27.5,27.02c-1.25-.74-2.33-.93-2.76-1.43-.24-.28-.59-1-.24-1.04.31-.04.6-.3.76-.45.07-.06-.03-.54.07-.54.07.02-.05.52,1.15,1.11.52.24,1.64.69,2.04.78.31.07.61.21,1.15.29.1.02.11.07.12.11.42,1.75-1.51,1.62-2.29,1.16ZM24.92,23.7c-.04.39-.55.56-.61.57-.29.09-.76-1.26-.74-1.35.03-.13.05-.27.65-.31.27,0,.76.52.7,1.09ZM24.68,20.95c.05-.12.22-.12.68,0,.24.05,1.04,1.03.34,1.67-.17.09-.35.16-.62-.25-.48-.61-.85-.82-.4-1.42ZM31.44,25.18c-.18.14-.38.24-.94.26-.08.01-.19.01-.25,0-.38-.07-1.18-.52-3-.98-1.37-.36-1.52-1.21-1.67-1.34-.05-.03.02-.04.07-.05.5-.29.54-.46.7-.74.18-.46-.04-.63-.11-.9-.14-.56.09-.2.3-.03.26.21.35.47.69.78.35.46,1.07,1.09,2.7.92.32-.01.85-.09,2.18-.02.08,0,.14.08.19.19.24.97-.69,1.76-.86,1.9ZM26.05,19.76c.2-.34.42-.51,1.03-.3.4.14,1.16.79.34,1.59-.25.1-.34.19-.7-.19-.26-.29-.84-.82-.68-1.1ZM34.37,20.2c.02-.15.15-.26.21-.17.13,0,.35,1.96-1.02,2.46-.67.25-1.04.07-1.7.09-1.15-.06-2.07.03-2.54.02-.69-.01-1.22-.16-1.59-.56-.19-.2-.6-.52-.32-.63.28-.11.45-.16.69-.61.31-.59-.1-.99.27-.84.32.14.34.15.68.39,1.3.92,5.43,1.91,5.33-.17ZM33.98,19.96c.13,1.26-1.56,1-2.12.91-.56-.05-1.01-.32-1.57-.46-.24-.19-1.51-.22-1.5-1.12-.02-.14,0-.47-.39-.32-.3.11-1.74.1-1.95-.32-.1-.19-.2-.31-.4-.41-.2-.09-.32.03-.3.26.04.3.01.7-.41.8-.37.1-.56.11-.81-.05-.28-.15-.79-.48-1.04-.46-.2.06-.35.21.11.42.41.2.9.87.2,1.63-1.03,1.13-.7,1.21-4.37,1.34-.17,0-.27.04-.37.13-.09.09-.12.24-.08.31.19.35.59.08.91.06.26-.02,1.67-.26,2.19.08.52.33,1.54.98,1.89,2.38.06.26.49,1.04,1.17,1.26.47.15.39.64,0,.68-1.08.1-1.42.55-4.79.54-2.69-.15-5.2-.67-5.37-4.24-.05-1.96.03-4.71.31-5.7.29-1.01,1.11-1,1.83-1.37,2.99-1.29,4.99-1.21,6.65-1.57.65-.14,1.15-.4,1.98.19,1.77,1.24,3.91,1.67,4.43,2.04.36.23.46.35.52.48.09.21.46.24.78.5.21.15.3.22.52.32-.3.39-.56-.05-.98.79-.09.18.01.52.07.67.2.34.93.4,1.21.45.23.04.5.09.76.13.69.13.89-.57.92-.32ZM32.48,18.61c.24-.02.43.14.57.21.26.11,1.19.28.76.81-.43.54-1.69.07-2.13-.07-.19-.08-.26-.21-.26-.37s.11-.57,1.05-.57ZM42.26,17.49c-1.83.03-2.48-.07-2.73-.09-.48-.05-.38-.2-.52-.17-.16.04,0,.21-.47.24,0,0-1.09.04-3.15-.02-.4-.02-.29-.07-.5-.12-.24-.05-.26.05-.31.14-.09.18-1.99.09-3.3-.12-.52-.71-1.04-1-1.68-1.15-1.87-.48-3.07-1.39-3.39-1.52,1.15-.16,2.82,0,3.56,0,.87.08,3.5-.22,5.02.06,1.24-.24,3.59.29,4.61.28.28.05.26-.11,2.11-.04,2.73.11,2.35,2.54.74,2.51Z" style="fill:#fff;"/></svg>