<?xml version="1.0" encoding="UTF-8"?>
<svg id="Layer_1" xmlns="http://www.w3.org/2000/svg" version="1.1" viewBox="0 0 50 21.6">
  <!-- Generator: Adobe Illustrator 29.1.0, SVG Export Plug-In . SVG Version: 2.1.0 Build 142)  -->
  <defs>
    <style>
      .st0 {
        fill: #fff;
      }
    </style>
  </defs>
  <path class="st0" d="M46.4.8c-4.9.1-8.6-.6-10.9-.6-2.4,0-10.2.3-12.7,0-2.1-.3-3.3.6-6.3.9-3.3.4-7.1,2-7.5,2.2-.2.1-.6,0-.7-.2-.2-.4-.3-1.1-1.3-1.1,0,0-.8,0-3.9,0C.1,1.9,0,4.8,0,12.2c0,7.1,1.2,9.4,2.7,9.4h4.3c1.2,0,1-1.4,1.2-1.9.1-.2.5-.5.9-.2,4.2,2.5,8.3,1.4,11.9.7,2.9-.5,3.8-.4,5.5,0,1.9.5,3.6-.7,3.2-2.7,2.9.5,4.4-3.1,3.8-4.1h1c2.2-.2,3.6-4.8,1.2-6-1.7-.7-1.7-1.1-2.9-1.3,2.1-.2,2.9,0,3.6,0,1.6-.1,3.8-.3,5.8,0,1.2.1,1.3-.3,4.6,0,4.2.2,4.2-5.2-.5-5.1ZM6,20.7c-.5,0-2.8,0-2.8,0-1,0-2.3-1-2.3-8.9,0-8.2.4-9.2,2.8-9.2h3c.2.1.3.2.4.4.2.5-.8,1.1-1,8.6,0,3,.5,8.1.7,8.6.2.4-.2.7-.8.7ZM25.6,19.2c-1.8-1.1-3.5-1.4-4.1-2.1-.4-.4-.9-1.5-.4-1.5.5,0,.9-.4,1.1-.7.1,0,0-.8.1-.8.1,0,0,.8,1.7,1.6.8.4,2.4,1,3,1.2.5.1.9.3,1.7.4.2,0,.2.1.2.2.6,2.6-2.2,2.4-3.4,1.7ZM21.8,14.3c0,.6-.8.8-.9.9-.4.1-1.1-1.9-1.1-2,0-.2,0-.4,1-.5.4,0,1.1.8,1,1.6ZM21.4,10.3c0-.2.3-.2,1,0,.4,0,1.5,1.5.5,2.5-.2.1-.5.2-.9-.4-.7-.9-1.3-1.2-.6-2.1ZM31.4,16.5c-.3.2-.6.4-1.4.4-.1,0-.3,0-.4,0-.6-.1-1.8-.8-4.4-1.5-2-.5-2.2-1.8-2.5-2,0,0,0,0,.1,0,.7-.4.8-.7,1-1.1.3-.7,0-.9-.2-1.3-.2-.8.1-.3.4,0,.4.3.5.7,1,1.2.5.7,1.6,1.6,4,1.4.5,0,1.3-.1,3.2,0,.1,0,.2.1.3.3.4,1.4-1,2.6-1.3,2.8ZM23.5,8.5c.3-.5.6-.8,1.5-.4.6.2,1.7,1.2.5,2.4-.4.2-.5.3-1-.3-.4-.4-1.2-1.2-1-1.6ZM35.8,9.1c0-.2.2-.4.3-.2.2,0,.5,2.9-1.5,3.6-1,.4-1.5.1-2.5.1-1.7,0-3.1,0-3.8,0-1,0-1.8-.2-2.4-.8-.3-.3-.9-.8-.5-.9.4-.2.7-.2,1-.9.5-.9-.1-1.5.4-1.2.5.2.5.2,1,.6,1.9,1.4,8,2.8,7.9-.2ZM35.2,8.8c.2,1.9-2.3,1.5-3.1,1.3-.8,0-1.5-.5-2.3-.7-.4-.3-2.2-.3-2.2-1.7,0-.2,0-.7-.6-.5-.4.2-2.6.1-2.9-.5-.1-.3-.3-.5-.6-.6-.3-.1-.5,0-.4.4,0,.4,0,1-.6,1.2-.6.1-.8.2-1.2,0-.4-.2-1.2-.7-1.5-.7-.3,0-.5.3.2.6.6.3,1.3,1.3.3,2.4-1.5,1.7-1,1.8-6.5,2-.3,0-.4,0-.5.2-.1.1-.2.4-.1.5.3.5.9.1,1.3,0,.4,0,2.5-.4,3.2.1.8.5,2.3,1.5,2.8,3.5,0,.4.7,1.5,1.7,1.9.7.2.6.9,0,1-1.6.2-2.1.8-7.1.8-4-.2-7.7-1-8-6.3,0-2.9,0-7,.5-8.5.4-1.5,1.6-1.5,2.7-2,4.4-1.9,7.4-1.8,9.9-2.3,1-.2,1.7-.6,2.9.3,2.6,1.8,5.8,2.5,6.6,3,.5.3.7.5.8.7.1.3.7.4,1.2.7.3.2.4.3.8.5-.4.6-.8,0-1.4,1.2-.1.3,0,.8.1,1,.3.5,1.4.6,1.8.7.3,0,.7.1,1.1.2,1,.2,1.3-.8,1.4-.5ZM33,6.8c.4,0,.6.2.9.3.4.2,1.8.4,1.1,1.2-.6.8-2.5.1-3.2-.1-.3-.1-.4-.3-.4-.6s.2-.9,1.6-.9ZM47.5,5.1c-2.7,0-3.7,0-4-.1-.7,0-.6-.3-.8-.2-.2,0,0,.3-.7.4,0,0-1.6,0-4.7,0-.6,0-.4-.1-.7-.2-.4,0-.4,0-.5.2-.1.3-2.9.1-4.9-.2-.8-1-1.5-1.5-2.5-1.7-2.8-.7-4.6-2.1-5-2.2,1.7-.2,4.2,0,5.3,0,1.3.1,5.2-.3,7.4,0,1.8-.4,5.3.4,6.8.4.4,0,.4-.2,3.1,0,4,.2,3.5,3.8,1.1,3.7Z"/>
</svg>