<?xml version="1.0" encoding="UTF-8"?><svg id="Layer_1" xmlns="http://www.w3.org/2000/svg" viewBox="0 0 194.11 258.87"><path d="M38.46,153.75l19.74-68.36h78.95l19.74,68.36H38.46Z" fill="#fff" fill-rule="evenodd"/><ellipse cx="122.99" cy="120.06" rx="5.58" ry="5.5" fill="#353535"/><path d="M86.08,113.8c0-1.92-1.58-3.48-3.53-3.48h-16.63c-1.95,0-3.53,1.56-3.53,3.48v10.77c0,2.88,2.37,5.22,5.29,5.22h6.05c3.27,0,6.41-1.28,8.73-3.57,2.31-2.28,3.61-5.38,3.61-8.61v-3.82Z" fill-rule="evenodd"/><path d="M154.93,20.06L194.11,0l-21.48,79.68-17.71,17.71V20.06Z" fill="#999" fill-rule="evenodd"/><path d="M39.18,20.06L0,0l21.48,79.68,17.71,17.71V20.06Z" fill="#999" fill-rule="evenodd"/><path d="M156.88,56.41s-29.61-19.47-59.21-19.47-59.21,19.47-59.21,19.47v58.4l7.89,15.57c5.66-21.52,31.3-30.49,49.15-17.19l2.17,1.62,2.17-1.62c17.85-13.3,43.48-4.34,49.15,17.19l7.89-15.57v-58.4Z" fill="#999" fill-rule="evenodd"/><path d="M77.94,144.01l-15.79,91.5-21.77-15.57,17.82-66.19,19.74-9.73Z" fill="#d4d4d4" fill-rule="evenodd"/><path d="M117.41,144.01l15.79,91.5,21.77-15.57-17.82-66.19-19.74-9.73Z" fill="#d5d5d5" fill-rule="evenodd"/><path d="M38.46,114.81l-15.79,58.4,19.74,38.93,15.79-58.4-19.74-38.93Z" fill="#e6e6e6" fill-rule="evenodd"/><path d="M156.88,114.81l15.79,58.4-19.74,38.93-15.79-58.4,19.74-38.93Z" fill="#e6e6e6" fill-rule="evenodd"/><path d="M77.94,144.01l-17.76,95.39,37.5,19.47,37.5-19.47-17.76-95.39-18.26-9.01-1.47-.73-19.74,9.73Z" fill="#e6e6e6" fill-rule="evenodd"/><path d="M104.75,147.91h-13.82v4.87c0,1.81.73,3.54,2.02,4.81,1.29,1.28,3.05,2,4.88,2h0c1.83,0,3.59-.72,4.88-2,1.29-1.28,2.02-3.01,2.02-4.81v-4.87Z" fill="#353535" fill-rule="evenodd"/></svg>