<?xml version="1.0" encoding="UTF-8"?><svg id="Layer_1" xmlns="http://www.w3.org/2000/svg" viewBox="0 0 27.01 27.01"><polygon points="24.13 16.35 25.2 20.25 21.28 21.28 20.25 25.2 16.35 24.13 13.5 27.01 10.66 24.13 6.75 25.2 5.72 21.28 1.81 20.25 2.88 16.35 0 13.5 2.88 10.66 1.81 6.75 5.72 5.72 6.75 1.81 10.66 2.88 13.5 0 16.35 2.88 20.25 1.81 21.28 5.72 25.2 6.75 24.13 10.66 27.01 13.5 24.13 16.35" style="fill:#fff;"/><path d="M13.5,0l-2.85,2.88-3.9-1.07-1.03,3.92-3.92,1.03,1.07,3.9L0,13.5l2.88,2.85-1.07,3.9,3.92,1.03,1.03,3.92,3.9-1.07,2.85,2.88,2.85-2.88,3.9,1.07,1.03-3.92,3.92-1.03-1.07-3.9,2.88-2.85-2.88-2.85,1.07-3.9-3.92-1.03-1.03-3.92-3.9,1.07L13.5,0h0Z"/></svg>