<?xml version="1.0" encoding="UTF-8"?><svg id="Layer_2" xmlns="http://www.w3.org/2000/svg" viewBox="0 0 151.04 223.62"><g id="Layer_1-2"><path d="M38.47,171.9L6.81,70.1,77.18,14.62l67.05,63.19-38.01,88.68-67.75,5.4Z" style="fill:#fff; fill-rule:evenodd;"/><path d="M53.92,138.8l-10.95,63.42-19.95-14.27,16.33-60.64,14.56,11.48Z" style="fill:#d4d4d4; fill-rule:evenodd;"/><path d="M97.18,137.62l10.89,64.6,19.95-14.27-16.33-60.64-14.5,10.31Z" style="fill:#d5d5d5; fill-rule:evenodd;"/><path d="M21.28,91.64l-14.47,53.51,18.08,35.67,14.47-53.51-18.08-35.67Z" style="fill:#e6e6e6; fill-rule:evenodd;"/><path d="M129.77,91.64l14.47,53.51-18.08,35.67-14.47-53.51,18.08-35.67Z" style="fill:#e6e6e6; fill-rule:evenodd;"/><path d="M53.92,138.8l-12.75,66.99,34.36,17.83,34.36-17.83-12.69-68.17-18.03,15.06-5.17.36-20.07-14.24Z" style="fill:#e6e6e6; fill-rule:evenodd;"/><path d="M150.92,53.09C148.22,7.26,96.31,0,75.53,0S2.83,7.26.12,53.09c-1.54,26.16,12.32,59.25,12.32,59.25,5.35-.67,5.76-10.08,5.64-20.75-.02-2.28,4.54-4.62,4.52-6.94-.14-11.79.23-23.18,6.76-24.63,13.85-3.08,46.17-4.62,46.17-4.62,0,0,32.31,1.54,46.16,4.62,6.54,1.45,6.9,12.84,6.77,24.63-.03,2.32,4.54,4.66,4.52,6.94-.12,10.67.29,20.08,5.64,20.75,0,0,13.87-33.09,12.31-59.25Z" style="fill:#999;"/><path d="M76.88,128.35c-4.76-.83-16.07-1.67-26.74,6.33-13.96,10.47-18.61,15.12-18.61,15.12,0,0,26.76,11.14,45.35-8.07,18.58,19.21,45.35,8.07,45.35,8.07,0,0-4.65-4.65-18.61-15.12-10.67-8-21.98-7.16-26.74-6.33Z" style="fill:#999;"/><path d="M42.72,108.45c12.04,0,16.57-3.39,16.57-6.78s-22.6,0-28.62,0c0,0,0,6.78,12.04,6.78Z" style="fill:#606060;"/><path d="M120.53,101.68c-6.03,0-28.62-3.39-28.62,0s4.52,6.78,16.56,6.78,12.05-6.78,12.05-6.78Z" style="fill:#606060;"/><path d="M62.15,94.65c2.16.86,3.83-1.89.6-3.34-1.45-.65-16.91-8.43-25.4-11.48-3.05-1.1-4.68-.49-5.82.65-2.35,2.35-6.41,6.31-7.33,7.27-.92.97.28,2.81,2.59,1.3,2.97-1.94,6.2-3.23,6.2-3.23,0,0,27.01,7.98,29.16,8.84Z" style="fill:#606060;"/><path d="M119.71,80.47c-1.13-1.13-2.77-1.75-5.82-.65-8.48,3.05-23.94,10.83-25.39,11.48-3.24,1.46-1.57,4.21.59,3.34,2.15-.86,29.16-8.84,29.16-8.84,0,0,3.23,1.29,6.2,3.23,2.31,1.52,3.51-.32,2.59-1.3-.91-.97-4.98-4.93-7.33-7.27Z" style="fill:#606060;"/></g></svg>