<?xml version="1.0" encoding="UTF-8"?><svg id="Layer_2" xmlns="http://www.w3.org/2000/svg" viewBox="0 0 194.11 250.29"><g id="Layer_1-2"><path d="M39.81,148.65l19.08-66.09h76.33l19.08,66.09H39.81Z" style="fill:#fff; fill-rule:evenodd;"/><ellipse cx="121.53" cy="116.08" rx="5.39" ry="5.32" style="fill:#606060;"/><path d="M85.84,110.03c0-1.86-1.53-3.36-3.41-3.36h-16.08c-1.88,0-3.41,1.51-3.41,3.36v10.41c0,2.79,2.29,5.04,5.11,5.04h5.85c3.16,0,6.2-1.24,8.44-3.45,2.24-2.21,3.49-5.2,3.49-8.32v-3.69Z" style="fill:#606060; fill-rule:evenodd;"/><path d="M163.59,96.47s-40,12.98-68.63,12.98-54.21-8.38-54.21-8.38l-.94,9.94,7.63,15.06c5.48-20.81,30.53-20.72,47.52-16.62l2.1,1.56,2.1-1.56c16.99-3.51,42.04-4.19,47.52,16.62l7.63-15.06,9.28-14.54Z" style="fill:#e6e6e6; fill-rule:evenodd;"/><path d="M77.97,139.24l-15.27,88.46-21.05-15.06,17.23-63.99,19.08-9.41Z" style="fill:#d4d4d4; fill-rule:evenodd;"/><path d="M116.14,139.24l15.27,88.46,21.05-15.06-17.23-63.99-19.08-9.41Z" style="fill:#d5d5d5; fill-rule:evenodd;"/><path d="M39.81,111l-15.27,56.47,19.08,37.64,15.27-56.47-19.08-37.64Z" style="fill:#e6e6e6; fill-rule:evenodd;"/><path d="M154.3,111l15.27,56.47-19.08,37.64-15.27-56.47,19.08-37.64Z" style="fill:#e6e6e6; fill-rule:evenodd;"/><path d="M186.82,77.03s-17.25,29.63-65.28,31.73c-11.37.5-34.09-.3-45.47-.3-46.8,0-70.72-31.19-70.72-31.19l40.6-.05,4.27-57.38,5.82-13.67,21.93-5.11,17.41,13.23L115.67.95l24.54,7.7,8.21,68.43,38.4-.05Z" style="fill:#e6e6e6; fill-rule:evenodd;"/><path d="M77.97,139.24l-17.17,92.23,36.26,18.82,36.26-18.82-17.17-92.23-17.66-8.71-1.42-.7-19.08,9.41Z" style="fill:#e6e6e6; fill-rule:evenodd;"/><path d="M103.89,143h-13.36v4.71c0,1.75.7,3.42,1.96,4.65,1.25,1.23,2.95,1.93,4.72,1.93h0c1.77,0,3.47-.69,4.72-1.93,1.25-1.23,1.96-2.91,1.96-4.65v-4.71Z" style="fill:#606060; fill-rule:evenodd;"/><path d="M154.01,73.49c-.07-.34-.15-.8-.26-1.37h0c-.77-4.13-2.62-13.99-4.59-24.45h0c-1.29-6.88-2.64-14.02-3.77-19.96-.56-2.97-1.07-5.66-1.5-7.86-.43-2.2-.76-3.92-.98-5.01-.46-2.27-1.42-4.37-2.71-6.18-1.93-2.74-4.63-4.89-7.71-6.36-3.07-1.48-6.56-2.29-10.17-2.29-2.2,0-4.44.3-6.66.95-2.2.65-4.38,1.65-6.45,3.02-2.61,1.74-5.01,2.64-7.09,3.13-1.03.24-1.99.38-2.84.46-.85.07-1.6.08-2.25.08s-1.16.02-1.67.02c-.55,0-1.05-.02-1.65-.09-.88-.11-1.94-.34-3.39-.89-1.45-.55-3.28-1.42-5.62-2.81-4.19-2.49-8.76-3.61-13.1-3.61-2.39,0-4.73.34-6.92.98-3.29.97-6.29,2.63-8.67,4.93-1.2,1.15-2.23,2.46-3.06,3.91-.82,1.46-1.44,3.06-1.78,4.75-.23,1.08-.56,2.81-.98,5.01-1.28,6.61-3.34,17.5-5.27,27.81-1.97,10.47-3.82,20.33-4.59,24.47h0c-.11.57-.2,1.03-.26,1.37H0l2.35,4.78c.12.23,1.28,2.52,4.17,5.82,4.34,4.95,12.61,12.16,26.98,18.08,2.54,1.05,5.28,2.06,8.22,3.01,1.8.58,3.67,1.14,5.62,1.67v1.76l15.75,18.22s18.21,3.44,19.69,2.95,14.28-13.29,14.28-13.29c0,0,12.8,12.8,14.28,13.29,1.48.49,19.69-2.95,19.69-2.95l15.76-18.22v-1.76c17.15-4.69,28.23-11.41,35.08-17.19,7.2-6.06,9.73-11.04,9.9-11.39l2.35-4.78h-40.1ZM51.47,48.88c1.29-6.87,2.64-14,3.77-19.95.57-2.97,1.08-5.65,1.5-7.84.43-2.19.76-3.91.97-4.95h0c.27-1.33.81-2.54,1.59-3.64,1.17-1.65,2.9-3.06,5.04-4.06,2.13-1,4.66-1.56,7.3-1.56,3.21,0,6.58.83,9.72,2.69,3.44,2.04,6.15,3.23,8.44,3.91,1.15.34,2.18.55,3.12.66s1.78.14,2.48.14,1.22-.02,1.67-.02c.76,0,1.72-.02,2.84-.12,1.67-.14,3.69-.48,5.9-1.2,2.22-.72,4.64-1.81,7.12-3.47,1.49-1,3.04-1.71,4.63-2.17,1.59-.47,3.2-.69,4.79-.69,1.74,0,3.44.26,5.02.75,2.38.73,4.49,1.95,6.06,3.48.79.77,1.44,1.6,1.94,2.48.5.88.86,1.82,1.07,2.8h0c.21,1.04.55,2.76.97,4.95,1.27,6.58,3.32,17.48,5.27,27.78h0c.26,1.36.51,2.71.76,4.05H50.71c.25-1.33.5-2.68.76-4.05ZM181.52,80.91c-4.19,4.41-11.91,10.66-25.28,15.87-13.37,5.2-32.4,9.33-59.18,9.33-18.7,0-33.61-2.01-45.47-4.99-17.78-4.48-28.65-11.12-35.07-16.52-1.94-1.64-3.46-3.15-4.65-4.47h170.37c-.23.25-.47.52-.72.78Z" style="fill:#999;"/><path d="M45.95,106.46c.46.13.92.27,1.39.4v1.76l15.75,18.22s18.21,3.44,19.69,2.95c1.48-.49,14.28-13.29,14.28-13.29,0,0,12.8,12.8,14.28,13.29,1.48.49,19.69-2.95,19.69-2.95l15.76-18.22v-1.76c3.56-.98,6.85-2.04,9.91-3.17-48.09,17-92.41,8-110.74,2.77Z" style="fill:#606060;"/><path d="M43.84,105.84c.59.18,1.19.35,1.79.53-.63-.18-1.23-.36-1.79-.53Z" style="fill:#606060;"/></g></svg>