<?xml version="1.0" encoding="UTF-8"?><svg id="Layer_2" xmlns="http://www.w3.org/2000/svg" viewBox="0 0 159.4 235.99"><g id="Layer_1-2"><path d="M40.6,181.41L7.19,73.98,81.45,15.43l70.76,66.68-40.12,93.59-71.5,5.7Z" style="fill:#fff; fill-rule:evenodd;"/><path d="M56.9,146.48l-11.55,66.93-21.05-15.06,17.23-63.99,15.37,12.12Z" style="fill:#d4d4d4; fill-rule:evenodd;"/><path d="M102.56,145.23l11.49,68.17,21.05-15.06-17.23-63.99-15.3,10.88Z" style="fill:#d5d5d5; fill-rule:evenodd;"/><path d="M22.45,96.71l-15.27,56.47,19.08,37.64,15.27-56.47-19.08-37.64Z" style="fill:#e6e6e6; fill-rule:evenodd;"/><path d="M136.95,96.71l15.27,56.47-19.08,37.64-15.27-56.47,19.08-37.64Z" style="fill:#e6e6e6; fill-rule:evenodd;"/><path d="M56.9,146.48l-13.46,70.7,36.26,18.82,36.26-18.82-13.4-71.94-19.02,15.89-5.46.38-21.18-15.03Z" style="fill:#e6e6e6; fill-rule:evenodd;"/><path d="M159.27,56.02C156.42,7.66,101.63,0,79.7,0S2.98,7.66.13,56.02c-1.63,27.61,13,62.53,13,62.53,5.65-.71,6.08-10.64,5.95-21.9-.02-2.41,4.8-4.87,4.77-7.32-.14-12.44.24-24.46,7.14-25.99,14.61-3.25,48.72-4.87,48.72-4.87,0,0,34.1,1.63,48.71,4.87,6.9,1.53,7.29,13.55,7.14,25.99-.03,2.45,4.79,4.92,4.77,7.32-.12,11.26.31,21.19,5.95,21.9,0,0,14.63-34.92,13-62.53Z" style="fill:#606060;"/><path d="M81.14,135.45c-5.02-.88-16.96-1.76-28.22,6.68-14.73,11.05-19.64,15.95-19.64,15.95,0,0,28.25,11.75,47.86-8.52,19.61,20.27,47.86,8.52,47.86,8.52,0,0-4.91-4.91-19.64-15.95-11.26-8.44-23.2-7.56-28.22-6.68Z" style="fill:#999;"/><path d="M45.08,114.45c12.71,0,17.49-3.58,17.49-7.15s-23.85,0-30.2,0c0,0,0,7.15,12.71,7.15Z"/><path d="M127.2,107.3c-6.36,0-30.2-3.57-30.2,0s4.77,7.15,17.48,7.15,12.72-7.15,12.72-7.15Z"/><path d="M65.59,99.88c2.28.91,4.04-1.99.63-3.53-1.53-.68-17.85-8.9-26.8-12.12-3.22-1.16-4.94-.51-6.14.68-2.48,2.48-6.77,6.66-7.74,7.68-.97,1.03.29,2.97,2.73,1.37,3.13-2.05,6.54-3.41,6.54-3.41,0,0,28.51,8.42,30.78,9.33Z"/><path d="M126.33,84.92c-1.19-1.2-2.92-1.84-6.14-.68-8.95,3.22-25.27,11.43-26.79,12.12-3.42,1.54-1.65,4.44.62,3.53,2.27-.91,30.78-9.33,30.78-9.33,0,0,3.41,1.36,6.54,3.41,2.44,1.6,3.7-.34,2.73-1.37-.96-1.02-5.26-5.2-7.74-7.68Z"/></g></svg>