<?xml version="1.0" encoding="UTF-8"?><svg id="Layer_2" xmlns="http://www.w3.org/2000/svg" viewBox="0 0 174.08 200.63"><g id="Layer_1-2"><path d="M87.04,0C29.74,0,0,45.66,0,86.4c0,34.4,6.53,65.19,21.91,84.21,14.66,18.12,36.68,30.01,65.13,30.01s50.46-11.89,65.12-30.01c15.39-19.02,21.92-49.81,21.92-84.21,0-40.74-29.74-86.4-87.04-86.4ZM71.62,40.64l4.31-8.63c.65-1.29,1.96-2.09,3.4-2.09h15.4c1.44,0,2.76.81,3.4,2.09l4.32,8.63c.78,1.57.39,3.47-.94,4.6l-5.09,4.3c-.84.72-1.33,1.79-1.33,2.9v-.2c0,2.09-1.7,3.8-3.81,3.8h-8.49c-2.09,0-3.8-1.7-3.8-3.8v.2c0-1.11-.49-2.18-1.35-2.9l-5.08-4.3c-1.33-1.14-1.73-3.04-.94-4.6ZM133.53,123.94c-15.09,6.69-26.4,1.84-34.85-2.5l9.49,17.53c10.05,4.18,17.51,11.24,17.51,20.09,0,4.18-2.12,9.72-12.21,12.39-6.12,1.61-13.53,1.82-19.3,1.82-1.51,0-2.93-.01-4.22-.02-1.07-.01-2.04-.02-2.9-.02s-1.84.01-2.9.02c-1.3.01-2.72.02-4.22.02-5.78,0-13.19-.2-19.3-1.82-10.1-2.66-12.21-8.2-12.21-12.39,0-9.02,7.74-16.19,18.07-20.33l9.54-17.61c-8.51,4.41-20.01,9.67-35.47,2.82-30.01-13.3-26.52-56.2-17.43-64.23,8.96-7.94,34.94,12.42,63.93,12.42s54.97-20.36,63.93-12.42c9.08,8.03,12.58,50.93-17.44,64.23Z" style="fill:#999;"/><path d="M64.96,156.24c0,5.35,16.54,4.72,23.16,4.72s23.16.63,23.16-4.72-11.94-9.12-23.16-9.12-23.16,3.78-23.16,9.12Z" style="fill:#e6e6e6;"/><polygon points="93.05 131.4 86.1 120.02 79.15 131.4 86.1 132.59 93.05 131.4" style="fill:#d5d5d5;"/><path d="M77.37,90.98c-2.56-7.14-29.52-11.85-37.73-14.74-6.98-2.46-7.91-.45-7.91,2.9,0,0-2.56,25.92,17,31.27,19.57,5.36,31.19-12.35,28.65-19.43Z"/><path d="M134.43,76.23c-8.22,2.89-35.16,7.6-37.73,14.74-2.53,7.08,9.09,24.79,28.65,19.43,19.56-5.36,17-31.27,17-31.27,0-3.35-.93-5.36-7.92-2.9Z"/><path d="M79.89,45.68c1.35.25,2.64-.64,2.89-1.98l.69-3.66c.24-1.34-.64-2.63-1.98-2.88-1.35-.25-2.64.64-2.89,1.98l-.68,3.66c-.25,1.34.63,2.64,1.98,2.89Z"/><path d="M94.08,45.68c1.35-.25,2.24-1.55,1.98-2.89l-.67-3.66c-.26-1.34-1.54-2.23-2.89-1.98s-2.23,1.54-1.98,2.88l.68,3.66c.25,1.35,1.55,2.24,2.88,1.98Z"/><polygon points="89.83 48.76 87.15 44.51 84.47 48.76 87.15 48.54 89.83 48.76"/></g></svg>