<?xml version="1.0" encoding="UTF-8"?><svg id="Layer_2" xmlns="http://www.w3.org/2000/svg" viewBox="0 0 173.66 234.68"><g id="Layer_1-2"><path d="M173.38,209.71c-5.29-29.18-17.28-56.15-29.85-70.88.15-.97.27-1.92.36-2.83.18-1.63.29-3.13.41-4.43.09-.97.18-1.84.28-2.53.04-.24.07-.45.11-.64.36-.07.71-.16,1.05-.27h0c1.5-.49,2.84-1.26,4.04-2.17h0c1.8-1.37,3.37-3.1,4.59-5.04.61-.98,1.13-2.02,1.52-3.14h0c.38-1.11.64-2.33.64-3.62,0-.87-.12-1.78-.41-2.68-.45-1.39-1.29-2.67-2.46-3.67-1.15-.98-2.53-1.64-4.01-2.04h0c-.49-.13-1.15-.44-1.88-.96h0c-1.27-.89-2.76-2.44-4.12-4.25h0c-2.06-2.73-3.9-6.06-5.18-8.66-.44-.89-.81-1.7-1.11-2.37,2.45-.42,4.67-1.6,6.36-3.29,2.14-2.14,3.48-5.13,3.48-8.4,0-2.27-.64-4.41-1.75-6.21-.72-1.17-1.65-2.2-2.71-3.05-.61-2.15-1.8-4.05-3.4-5.51h0c-2.1-1.92-4.91-3.1-7.98-3.12h-.04s-.07,0-.13,0c-1.22.01-2.41.21-3.52.57l-23.42-28.41c.2-.81.33-1.65.33-2.51,0-.47-.04-.93-.1-1.39.49-.42.95-.9,1.35-1.42,1.35-1.73,2.16-3.93,2.16-6.3,0-2.82-1.15-5.4-3-7.25h0c-1.11-1.1-2.47-1.95-3.99-2.45-.37-2.14-1.38-4.05-2.84-5.52h0c-1.8-1.79-4.29-2.93-7.02-2.99-.04,0-.09,0-.17,0h-.16c-.93,0-1.84.15-2.7.39-.31-.28-.63-.55-.97-.79-1.62-1.16-3.61-1.84-5.73-1.88-.03,0-.08,0-.13,0h-.07s-.1,0-.2.01c-2.74.06-5.24,1.19-7.03,3h0c-1.37,1.37-2.34,3.15-2.76,5.11-1.32.52-2.51,1.3-3.5,2.28-1.85,1.85-3,4.43-3,7.25,0,2.09.64,4.06,1.73,5.69-1.08,1.62-1.72,3.58-1.72,5.67,0,2.39.83,4.59,2.2,6.34l-20.07,24.67c-1.73.16-3.36.69-4.79,1.51-1.01.58-1.91,1.3-2.7,2.12-2.72.32-5.18,1.55-7.02,3.39h0c-2.15,2.14-3.48,5.13-3.48,8.4,0,2.55.81,4.93,2.18,6.86.94,1.32,2.15,2.43,3.53,3.28.5,1.21,1.18,2.31,2.03,3.28-.73,1.68-2.14,4.71-3.96,7.76-1.34,2.24-2.92,4.51-4.5,6.19h0c-.79.84-1.58,1.54-2.29,2.04h0c-.71.5-1.35.8-1.84.93h0c-.99.27-1.92.64-2.78,1.16-1.31.78-2.4,1.88-3.12,3.2-.71,1.31-.98,2.71-.98,4.02h0c0,1.96.59,3.74,1.35,5.31h0c1.18,2.36,2.9,4.44,4.88,6.08h0c1,.82,2.1,1.54,3.29,2.09h0c.7.32,1.47.59,2.29.76,0,.01,0,.02,0,.04h0s0,.02,0,.02c.11.57.21,1.36.3,2.28.09.92.18,1.98.28,3.11.14,1.52.31,3.21.57,4.97-12.57,14.73-24.56,41.7-29.85,70.88-1.6,8.85,4.14,11.38,8.55,13.53,10.69,5.2,49.16,11.44,78.01,11.44s67.33-6.24,78.01-11.44c4.41-2.15,10.15-4.68,8.55-13.53Z" style="fill:#999;"/><path d="M72.06,14.75c.75-.74,1.76-1.2,2.9-1.2.07,0,.17,0,.32.01.6.05,1.18-.2,1.57-.66.39-.46.53-1.07.39-1.65-.08-.34-.13-.67-.13-1,0-1.14.46-2.16,1.2-2.91.75-.74,1.77-1.2,2.9-1.2.89,0,1.7.28,2.37.75.67.47,1.19,1.14,1.48,1.92.22.59.71,1.03,1.32,1.17.61.14,1.25-.03,1.71-.46.74-.69,1.71-1.11,2.8-1.11,1.14,0,2.15.46,2.9,1.2.75.75,1.2,1.77,1.2,2.91,0,.51-.09.99-.27,1.46-.24.64-.12,1.36.33,1.88.45.52,1.14.75,1.81.61.28-.06.57-.09.86-.09,1.14,0,2.15.46,2.9,1.2.74.75,1.2,1.76,1.2,2.9,0,.96-.32,1.82-.87,2.51-.54.7-1.31,1.22-2.18,1.45-.59.16-1.06.58-1.27,1.15-.21.57-.14,1.2.2,1.7.44.66.69,1.44.69,2.29,0,1.14-.46,2.16-1.2,2.91-.75.75-1.77,1.2-2.91,1.2-1.3,0-2.45-.6-3.21-1.55-.45-.57-1.2-.82-1.9-.65-.71.18-1.25.74-1.39,1.45-.18.94-.69,1.77-1.4,2.36-.71.59-1.62.94-2.62.94-.91,0-1.73-.29-2.41-.79-.68-.49-1.2-1.2-1.48-2.01-.18-.54-.6-.97-1.14-1.16-.54-.19-1.13-.13-1.62.17-.64.4-1.37.62-2.16.62-1.14,0-2.16-.46-2.9-1.2-.75-.75-1.2-1.76-1.2-2.9,0-.92.29-1.75.79-2.43.5-.68,1.21-1.2,2.03-1.47.77-.25,1.28-.97,1.28-1.78s-.52-1.52-1.29-1.77c-.82-.27-1.53-.79-2.03-1.47-.5-.68-.8-1.51-.8-2.43,0-1.14.46-2.16,1.2-2.9Z" style="fill:#fff;"/><path d="M86.83,224.5c-3.25,0-5.88-2.63-5.88-5.88s2.63-5.88,5.88-5.88,5.88,2.63,5.88,5.88-2.63,5.88-5.88,5.88Z" style="fill:#fff;"/><path d="M86.83,202.6c-3.25,0-5.88-2.63-5.88-5.88s2.63-5.87,5.88-5.87,5.88,2.63,5.88,5.87-2.63,5.88-5.88,5.88Z" style="fill:#fff;"/><path d="M141.06,122.95c-.53.31-.94.73-1.24,1.17-.29.42-.5.86-.66,1.31-.32.85-.5,1.77-.65,2.77-.26,1.75-.39,3.77-.59,5.94-.31,3.25-.79,6.81-1.97,10.05-.59,1.62-1.35,3.15-2.34,4.54-.99,1.39-2.21,2.63-3.76,3.7-3.31,2.28-5.69,4.43-7.46,6.4-1.33,1.47-2.31,2.84-3.08,4.05-.59.9-1.06,1.71-1.46,2.39-.61,1.03-1.1,1.74-1.54,2.14-.22.2-.43.34-.68.47-.26.12-.57.22-1.01.28-1.75.25-3.54.33-5.13.33s-3-.08-4-.17c-.49-.04-.89-.09-1.16-.12-.13-.01-.24-.03-.3-.04h-.08s-.02-.01-.02-.01h0c-.64-.09-1.28.15-1.7.65l-.03.04c-.33.4-3.34,3.97-6.8,7.38-1.72,1.71-3.57,3.38-5.18,4.57-.81.6-1.56,1.07-2.17,1.37-.61.31-1.08.4-1.21.39-.07,0-.22-.02-.44-.08-.41-.12-1.04-.41-1.74-.86-1.24-.77-2.73-1.98-4.21-3.33-2.24-2.03-4.5-4.42-6.19-6.28-.85-.93-1.55-1.73-2.04-2.3-.25-.28-.44-.51-.57-.66-.06-.08-.11-.14-.15-.18l-.05-.05c-.47-.57-1.24-.8-1.95-.6-.01.01-3.43.96-7.39.95-1,0-2.04-.05-3.05-.2-.5-.07-.82-.19-1.09-.35-.24-.14-.45-.32-.69-.59-.42-.47-.88-1.23-1.44-2.25-.85-1.52-1.94-3.58-3.77-5.87-1.83-2.29-4.41-4.83-8.23-7.45-1.43-.98-2.58-2.12-3.53-3.39-1.66-2.21-2.71-4.82-3.39-7.54-.51-2.04-.81-4.14-1.03-6.15-.17-1.51-.28-2.97-.4-4.33-.09-1.03-.19-1.98-.33-2.88-.1-.67-.22-1.31-.38-1.9-.13-.45-.27-.89-.47-1.3-.29-.63-.68-1.24-1.31-1.72-.31-.24-.67-.44-1.06-.57-.39-.13-.8-.19-1.19-.19-.26,0-.58-.05-.95-.17-.65-.21-1.43-.63-2.2-1.22-1.16-.88-2.3-2.12-3.09-3.4-.4-.64-.72-1.29-.92-1.89-.21-.6-.31-1.16-.31-1.62,0-.31.04-.57.11-.79.11-.34.28-.61.6-.89.33-.27.84-.57,1.64-.79,1.37-.37,2.63-1.03,3.81-1.86,2.06-1.45,3.87-3.43,5.49-5.57,2.42-3.22,4.39-6.82,5.78-9.64,1.06-2.14,1.77-3.82,2.05-4.52.89.27,1.83.43,2.81.43,1.92,0,3.71-.59,5.21-1.57.97.65,2.06,1.11,3.25,1.36-.37,4.41-1.69,8.57-3.05,12.52-.77,2.23-1.54,4.39-2.13,6.51-.59,2.12-1.01,4.21-1.01,6.29,0,1.1.12,2.19.4,3.27.41,1.62,1.2,3.19,2.39,4.63,1.2,1.44,2.78,2.76,4.81,3.98,3.01,1.8,6.13,2.4,8.89,2.4s5.17-.58,6.91-1.16c1.49-.5,2.48-.99,2.79-1.15,1.81-.8,3.39-1.07,4.74-1.07.06,0,.1.01.16.01,1.53,2.04,3.97,3.37,6.73,3.37s5.18-1.32,6.71-3.36c1.2.07,2.57.37,4.11,1.05.3.16,1.3.65,2.78,1.15,1.74.58,4.15,1.16,6.91,1.16s5.88-.6,8.89-2.4c2.7-1.62,4.63-3.43,5.86-5.46.62-1.01,1.06-2.07,1.34-3.15.28-1.08.4-2.17.4-3.27,0-2.08-.42-4.17-1.01-6.29-.89-3.18-2.18-6.46-3.25-9.9-.91-2.93-1.66-5.97-1.93-9.15.66.14,1.34.23,2.04.23,1.92,0,3.71-.59,5.21-1.57,1.49.99,3.29,1.57,5.21,1.57.72,0,1.42-.08,2.09-.24.57,1.38,2.22,5.18,4.61,9.23,1.5,2.53,3.28,5.15,5.33,7.37,1.03,1.11,2.12,2.11,3.3,2.94s2.44,1.49,3.8,1.86c.53.14.94.32,1.25.51.47.28.7.55.86.85.16.3.25.65.25,1.11,0,.69-.24,1.63-.72,2.59-.71,1.46-1.95,2.97-3.27,4.05-.66.54-1.34.97-1.95,1.25-.61.28-1.16.4-1.54.4-.64,0-1.31.16-1.86.49Z" style="fill:#fff;"/><polygon points="156.71 107.06 156.69 107.04 156.69 107.04 156.69 107.04 156.71 107.06" style="fill:#606060;"/><path d="M85.63,113.1c-4.65,0-8.42,3.77-8.42,8.42,0,.47.05.92.12,1.37-1.51.15-3.15.56-4.89,1.33l-.13.06h0s-.03.02-.03.02c-.2.11-1.16.59-2.6,1.03-1.43.45-3.32.86-5.38.86-2.23,0-4.63-.47-6.96-1.87-2.33-1.4-3.75-2.81-4.6-4.2-.43-.7-.72-1.4-.91-2.14-.19-.74-.28-1.51-.28-2.34,0-1.57.33-3.34.88-5.28.81-2.92,2.1-6.2,3.22-9.81.98-3.14,1.83-6.54,2.11-10.2,1.25-.24,2.4-.72,3.42-1.4,1.49.99,3.28,1.57,5.21,1.57s3.72-.59,5.21-1.57c1.49.99,3.29,1.57,5.21,1.57s3.71-.59,5.21-1.57c1.49.99,3.28,1.57,5.21,1.57s3.71-.59,5.21-1.57c1.49.99,3.29,1.57,5.21,1.57s3.71-.59,5.2-1.57c1.49.99,3.29,1.57,5.21,1.57,1.66,0,3.21-.44,4.57-1.19.25,5.47,1.83,10.37,3.32,14.71.77,2.25,1.52,4.37,2.07,6.31.54,1.95.88,3.72.87,5.28,0,.83-.09,1.6-.28,2.34-.29,1.1-.79,2.13-1.66,3.18-.87,1.04-2.11,2.1-3.85,3.15-2.33,1.4-4.73,1.86-6.96,1.87-2.23,0-4.26-.48-5.73-.97-.73-.25-1.32-.49-1.71-.67-.2-.08-.35-.15-.44-.21l-.1-.05h-.02s0-.01,0-.01l-.13-.06c-1.44-.64-2.81-1.03-4.1-1.23.08-.48.13-.97.13-1.47,0-4.64-3.76-8.42-8.41-8.42Z" style="fill:#e6e6e6;"/><path d="M66,105.1c-2.22,0-4.01,1.79-4.01,4s1.79,4,4.01,4,4-1.79,4-4c0-2.21-1.79-4-4-4Z" style="fill:#606060;"/><path d="M105.26,113.1c2.21,0,4.01-1.79,4.01-4s-1.79-4-4.01-4-4.01,1.79-4.01,4c0,2.21,1.79,4,4.01,4Z" style="fill:#606060;"/><path d="M91.96,138.79h-10.28c-1.03,0-1.87.83-1.87,1.87s.84,1.87,1.87,1.87h10.28c1.03,0,1.87-.83,1.87-1.87s-.83-1.87-1.87-1.87Z" style="fill:#606060;"/><path d="M36.06,78.75c-.66-.93-1.05-2.06-1.05-3.31,0-1.59.64-3.01,1.68-4.06,1.04-1.04,2.47-1.68,4.06-1.68.17,0,.35.01.55.03.71.06,1.39-.27,1.77-.89.51-.83,1.22-1.52,2.05-1.99.63-.37,1.34-.61,2.1-.71l.08.08c.65.53,1.56.54,2.22.09.89.25,1.7.72,2.36,1.34.72.67,1.85.67,2.57,0,1.03-.97,2.4-1.56,3.93-1.56s2.89.59,3.92,1.56c.72.67,1.84.67,2.56,0,1.04-.97,2.4-1.56,3.93-1.56s2.89.59,3.93,1.56c.72.67,1.84.67,2.56,0,1.04-.97,2.4-1.56,3.93-1.56s2.89.59,3.93,1.56c.72.67,1.85.67,2.56,0,1.04-.97,2.41-1.56,3.93-1.56s2.89.59,3.92,1.56c.72.67,1.85.67,2.57,0,1.03-.97,2.4-1.56,3.93-1.56s2.89.59,3.93,1.56c.72.67,1.84.67,2.56,0,1.04-.97,2.4-1.56,3.93-1.56s2.89.59,3.93,1.56c.72.67,1.84.67,2.56,0,1.03-.97,2.4-1.56,3.93-1.56s2.89.59,3.92,1.56c.72.67,1.85.67,2.56,0,1.04-.97,2.41-1.56,3.93-1.56s2.85.57,3.88,1.51c1.03.94,1.7,2.24,1.84,3.69.06.63.43,1.18.98,1.48.91.48,1.68,1.2,2.21,2.08.54.87.84,1.89.84,3,0,1.59-.64,3.01-1.68,4.06-1.04,1.04-2.46,1.68-4.04,1.68-.02,0-.07,0-.16,0-.63-.02-1.22.27-1.58.79-.52.73-1.21,1.35-2.01,1.77-.8.42-1.7.66-2.67.66-1.52,0-2.89-.59-3.93-1.56-.72-.67-1.84-.67-2.56,0-1.04.97-2.4,1.56-3.93,1.56s-2.89-.59-3.93-1.56c-.72-.67-1.84-.67-2.56,0-1.04.97-2.4,1.56-3.93,1.56s-2.89-.59-3.93-1.56c-.72-.67-1.84-.67-2.56,0-1.04.97-2.4,1.56-3.93,1.56s-2.89-.59-3.93-1.56c-.72-.67-1.84-.67-2.56,0-1.04.97-2.4,1.56-3.93,1.56s-2.89-.59-3.93-1.56c-.72-.67-1.84-.67-2.56,0-1.03.97-2.4,1.56-3.93,1.56s-2.89-.59-3.93-1.56c-.72-.67-1.84-.67-2.56,0-1.04.97-2.4,1.56-3.93,1.56s-2.89-.59-3.93-1.56c-.72-.67-1.84-.67-2.56,0-1.04.97-2.4,1.56-3.93,1.56s-2.89-.59-3.93-1.56c-.72-.67-1.84-.67-2.56,0-1.04.97-2.4,1.56-3.93,1.56-1.4,0-2.66-.49-3.65-1.31-1-.82-1.71-1.97-1.97-3.28-.13-.63-.58-1.15-1.18-1.38-1.1-.4-2.04-1.13-2.7-2.07Z" style="fill:#e6e6e6;"/></g></svg>