<?xml version="1.0" encoding="UTF-8"?><svg id="Layer_2" xmlns="http://www.w3.org/2000/svg" viewBox="0 0 162.35 187.11"><g id="Layer_1-2"><path d="M81.18,0C27.74,0,0,42.59,0,80.58c0,32.09,6.09,60.8,20.44,78.54,13.68,16.9,34.21,27.99,60.74,27.99s47.06-11.09,60.73-27.99c14.36-17.74,20.44-46.45,20.44-78.54,0-38-27.74-80.58-81.18-80.58Z" style="fill:#999;"/><path d="M80.3,28.37C36.77,28.37,14.17,63.07,14.17,94.02c0,26.14,4.96,49.54,16.65,63.99,11.14,13.77,27.87,22.8,49.48,22.8s38.34-9.03,49.48-22.8c11.7-14.45,16.65-37.85,16.65-63.99,0-30.96-22.6-65.65-66.14-65.65Z" style="fill:#d5d5d5;"/><path d="M124.54,115.59c-14.07,6.24-24.62,1.72-32.5-2.33l8.85,16.35c9.38,3.89,16.33,10.48,16.33,18.74,0,3.89-1.98,9.07-11.39,11.55-5.7,1.5-12.61,1.7-18,1.7-1.4,0-2.73-.01-3.94-.02-.99-.01-1.9-.02-2.71-.02s-1.72.01-2.71.02c-1.21.01-2.54.02-3.94.02-5.39,0-12.3-.19-18-1.7-9.42-2.48-11.39-7.65-11.39-11.55,0-8.41,7.22-15.1,16.86-18.96l8.9-16.42c-7.94,4.12-18.66,9.02-33.08,2.63-27.99-12.41-24.73-52.41-16.26-59.91,8.36-7.41,32.58,11.58,59.63,11.58s51.27-18.99,59.63-11.58c8.47,7.49,11.73,47.5-16.26,59.91Z" style="fill:#fff;"/><path d="M60.58,145.71c0,4.99,15.42,4.4,21.6,4.4s21.6.59,21.6-4.4-11.14-8.51-21.6-8.51-21.6,3.52-21.6,8.51Z" style="fill:#606060;"/><polygon points="86.78 122.55 80.3 111.93 73.82 122.55 80.3 123.66 86.78 122.55" style="fill:#d5d5d5;"/><path d="M72.16,84.85c-2.39-6.66-27.53-11.06-35.19-13.75-6.51-2.29-7.38-.42-7.38,2.71,0,0-2.39,24.17,15.85,29.17,18.25,5,29.09-11.52,26.72-18.12Z" style="fill:#606060;"/><path d="M125.37,71.1c-7.66,2.7-32.79,7.09-35.19,13.75-2.36,6.61,8.47,23.12,26.72,18.12,18.24-5,15.85-29.17,15.85-29.17,0-3.12-.87-5-7.39-2.71Z" style="fill:#606060;"/></g></svg>