<?xml version="1.0" encoding="UTF-8"?><svg id="Layer_2" xmlns="http://www.w3.org/2000/svg" viewBox="0 0 156.44 253.74"><g id="Layer_1-2"><path d="M50.58,139.24c0,2.15,1.75,3.91,3.91,3.91s3.91-1.76,3.91-3.91-1.75-3.91-3.91-3.91-3.91,1.75-3.91,3.91Z"/><path d="M101.95,143.14c2.16,0,3.91-1.76,3.91-3.91s-1.75-3.91-3.91-3.91-3.91,1.75-3.91,3.91,1.75,3.91,3.91,3.91Z"/><path d="M155.55,164.66v-.02c-.62-3.88-1.53-8.07-2.84-12.02l-4.16-12.48-4.93-15.48c6.25-3.45,10.49-10.1,10.49-17.75h0c-.02-11.23-9.09-20.34-20.33-20.34-1.57,0-3.08.21-4.54.54l-31.47-44.62c3.85-4.49,6.23-10.34,6.23-16.73,0-14.23-11.54-25.76-25.77-25.76s-25.76,11.53-25.77,25.76c0,6.39,2.36,12.24,6.23,16.73l-31.47,44.62c-1.46-.34-2.97-.54-4.54-.54-11.24,0-20.31,9.11-20.33,20.33h0c0,7.66,4.25,14.31,10.5,17.76l-4.94,15.49-4.15,12.46c-1.31,3.94-2.23,8.14-2.84,12.02v.02c-.59,3.88-.88,7.4-.9,10.13h0v.02c0,.43.02.7.02.78.02,21.57,8.78,41.12,22.92,55.26h0c14.14,14.12,33.7,22.86,55.27,22.88h0c21.57-.02,41.13-8.76,55.28-22.88h0c14.14-14.13,22.89-33.68,22.91-55.25,0-.05.02-.32.02-.79v-.03c-.03-2.72-.31-6.24-.9-10.12Z" style="fill:#999;"/><path d="M66.71,14.25c2.95-2.95,7.01-4.76,11.52-4.78,4.51.02,8.57,1.83,11.51,4.78,2.97,2.95,4.78,7.01,4.78,11.51s-1.81,8.54-4.78,11.51c-2.94,2.95-7,4.76-11.51,4.76s-8.57-1.81-11.52-4.76c-2.97-2.97-4.78-7.01-4.78-11.51,0-4.5,1.81-8.56,4.78-11.51Z" style="fill:#999;"/><path d="M11.81,106.91c0-3.01,1.22-5.7,3.18-7.68,1.97-1.96,4.67-3.18,7.68-3.18,3.52,0,6.61,1.66,8.62,4.27.59.76,1.51,1.22,2.48,1.22s1.92-.44,2.51-1.22c2.02-2.61,5.11-4.27,8.61-4.27s6.61,1.66,8.61,4.27c.59.78,1.53,1.25,2.5,1.25s1.92-.47,2.5-1.25c2-2.61,5.1-4.27,8.61-4.27s6.59,1.66,8.61,4.27c.59.78,1.52,1.25,2.51,1.25s1.92-.47,2.5-1.25c2.02-2.61,5.09-4.27,8.61-4.27s6.61,1.66,8.61,4.27c.59.78,1.51,1.25,2.5,1.25s1.92-.47,2.5-1.25c2-2.61,5.1-4.27,8.61-4.27s6.59,1.66,8.61,4.27c.59.78,1.52,1.22,2.51,1.22s1.89-.46,2.48-1.22c2.01-2.61,5.1-4.27,8.61-4.27,3.01,0,5.71,1.22,7.68,3.18,1.96,1.98,3.18,4.67,3.18,7.68s-1.22,5.7-3.18,7.66c-1.98,1.98-4.67,3.18-7.68,3.18-3.51,0-6.61-1.66-8.59-4.26-.61-.78-1.54-1.24-2.5-1.24s-1.92.46-2.51,1.24c-2.02,2.59-5.09,4.26-8.61,4.26s-6.61-1.66-8.61-4.26c-.59-.78-1.54-1.24-2.5-1.24s-1.92.46-2.5,1.24c-2,2.59-5.1,4.26-8.61,4.26s-6.59-1.66-8.61-4.26c-.59-.78-1.52-1.24-2.5-1.24s-1.92.46-2.51,1.24c-2.02,2.59-5.09,4.26-8.61,4.26s-6.61-1.66-8.61-4.26c-.59-.78-1.51-1.24-2.5-1.24s-1.92.46-2.5,1.24c-2,2.59-5.1,4.26-8.61,4.26s-6.59-1.66-8.61-4.26c-.59-.78-1.52-1.24-2.51-1.24s-1.89.46-2.51,1.24c-1.98,2.59-5.07,4.26-8.59,4.26-3.01,0-5.71-1.2-7.68-3.18-1.96-1.96-3.18-4.65-3.18-7.66Z" style="fill:#fff;"/><path d="M78.22,148.82c-5.53,0-10,4.48-10,10.02,0,.69.06,1.39.21,2.06l-.13.06c-3.7,1.73-9.55,3.2-18.61,3.2s-16.12-3.23-21.74-7.75c-5.26-4.26-8.95-9.71-10.72-14.4l5.73-17.98c4.13-.06,7.89-1.6,10.82-4.08,2.82,2.4,6.42,3.9,10.36,4.07-4.15,2.62-7.17,6.88-8.12,11.89h-2.38c-1.62,0-2.93,1.31-2.93,2.93s1.31,2.93,2.93,2.93h2.25c1.22,8.78,8.73,15.54,17.85,15.54s17.3-7.37,17.97-16.72c.33-.16.68-.3,1.06-.45,1.34-.53,3-.97,4.57-.96,1.83,0,3.76.58,5.2,1.22.25.11.5.23.72.34.74,9.28,8.49,16.58,17.97,16.58s16.62-6.76,17.84-15.54h3.71c1.62,0,2.93-1.32,2.93-2.93s-1.31-2.93-2.93-2.93h-3.85c-.95-5.01-3.97-9.27-8.12-11.9.25.02.49.04.73.04,4.23,0,8.11-1.56,11.09-4.1,2.92,2.48,6.69,4.02,10.82,4.08l5.73,17.98c-1.77,4.69-5.45,10.14-10.72,14.4-5.62,4.52-12.9,7.75-21.74,7.75s-14.9-1.48-18.61-3.2l-.13-.06c.15-.67.21-1.37.21-2.06,0-5.54-4.46-10.02-10-10.02Z" style="fill:#e6e6e6;"/><path d="M62.34,130.68c2.22,2.21,3.58,5.24,3.58,8.62s-1.36,6.39-3.58,8.6c-2.2,2.21-5.23,3.57-8.59,3.57s-6.4-1.36-8.62-3.57c-2.21-2.21-3.56-5.23-3.56-8.6s1.36-6.4,3.56-8.62c2.21-2.2,5.24-3.56,8.62-3.56s6.39,1.36,8.59,3.56Z"/><path d="M54.21,121.28c.62-.4,1.22-.84,1.78-1.31.98.84,2.07,1.56,3.24,2.16-1.59-.51-3.27-.8-5.02-.85Z" style="fill:#999;"/><path d="M101.24,127.12c3.37,0,6.4,1.36,8.61,3.56,2.2,2.21,3.56,5.24,3.56,8.62s-1.36,6.39-3.56,8.6c-2.22,2.21-5.25,3.57-8.61,3.57s-6.4-1.36-8.6-3.57c-2.21-2.21-3.57-5.23-3.57-8.6s1.36-6.4,3.57-8.62c2.2-2.2,5.22-3.56,8.6-3.56Z"/><path d="M98.31,121.51c.75-.46,1.47-.98,2.14-1.54.57.49,1.19.93,1.82,1.34-.35-.02-.69-.05-1.04-.05-1,0-1.97.09-2.92.25Z" style="fill:#999;"/><path d="M83.46,136.29c-1.67-.66-3.79-1.25-6.11-1.26-2.21,0-4.22.55-5.84,1.16-.99-5.65-4.6-10.38-9.53-12.92,1.62.51,3.34.8,5.12.8,4.24,0,8.13-1.56,11.12-4.1,2.99,2.54,6.88,4.1,11.12,4.1.88,0,1.73-.08,2.58-.21-4.4,2.66-7.58,7.15-8.46,12.43Z" style="fill:#e6e6e6;"/><path d="M146.95,175.43v.08c0,19.01-7.68,36.17-20.12,48.61-12.44,12.44-29.62,20.13-48.61,20.14-18.99-.02-36.16-7.71-48.61-20.14-12.44-12.44-20.13-29.59-20.13-48.61v-.08c0-.19-.02-.38-.02-.61,0-2.06.26-5.26.8-8.71.53-3.45,1.35-7.2,2.45-10.49l1.72-5.12c2.36,3.83,5.56,7.58,9.53,10.82,6.55,5.31,15.3,9.18,25.72,9.16,6.9,0,12.34-.8,16.61-2.04,2.04-.61,3.81-1.33,5.34-2.11,1.77,1.54,4.04,2.51,6.57,2.51s4.8-.97,6.57-2.51c1.53.78,3.3,1.5,5.34,2.11,4.27,1.24,9.7,2.04,16.61,2.04,10.42.02,19.18-3.85,25.72-9.16,3.98-3.24,7.18-6.99,9.54-10.82l1.72,5.12c1.1,3.29,1.92,7.03,2.45,10.49.54,3.45.8,6.65.8,8.71,0,.23-.02.42-.02.61Z" style="fill:#fff;"/></g></svg>